<svg width="1440" height="900" viewBox="0 0 1440 900" fill="none" xmlns="http://www.w3.org/2000/svg">
  <rect width="1440" height="900" fill="#F8F4ED"/>
  <rect x="64" y="72" width="850" height="740" fill="white" stroke="#DDD4C7"/>
  <rect x="950" y="72" width="426" height="740" fill="white" stroke="#DDD4C7"/>
  <text x="106" y="136" fill="#171717" font-family="Arial, sans-serif" font-size="28" letter-spacing="3">CHECKOUT</text>
  <rect x="106" y="170" width="766" height="1" fill="#DDD4C7"/>
  <text x="106" y="235" fill="#171717" font-family="Arial, sans-serif" font-size="20">Prenom *</text>
  <rect x="290" y="205" width="520" height="54" fill="white" stroke="#8A5B3F" stroke-width="2"/>
  <text x="106" y="325" fill="#171717" font-family="Arial, sans-serif" font-size="20">Nom *</text>
  <rect x="290" y="295" width="520" height="54" fill="white" stroke="#DDD4C7"/>
  <text x="106" y="415" fill="#171717" font-family="Arial, sans-serif" font-size="20">E-mail *</text>
  <rect x="290" y="385" width="520" height="54" fill="white" stroke="#DDD4C7"/>
  <text x="106" y="505" fill="#171717" font-family="Arial, sans-serif" font-size="20">Telephone *</text>
  <rect x="106" y="527" width="330" height="54" fill="white" stroke="#DDD4C7"/>
  <text x="480" y="505" fill="#171717" font-family="Arial, sans-serif" font-size="20">Ville *</text>
  <rect x="480" y="527" width="330" height="54" fill="white" stroke="#DDD4C7"/>
  <text x="106" y="637" fill="#171717" font-family="Arial, sans-serif" font-size="20">Adresse *</text>
  <rect x="106" y="659" width="704" height="54" fill="white" stroke="#DDD4C7"/>
  <rect x="106" y="740" width="280" height="52" fill="#171717"/>
  <text x="246" y="773" text-anchor="middle" fill="white" font-family="Arial, sans-serif" font-size="16" letter-spacing="3">CONFIRMER LA COMMANDE</text>
  <text x="984" y="136" fill="#171717" font-family="Arial, sans-serif" font-size="24">1 article</text>
  <text x="1298" y="136" text-anchor="end" fill="#171717" font-family="Georgia, serif" font-size="26">15800 DT</text>
  <rect x="984" y="188" width="72" height="72" fill="#ECE8E1" stroke="#DDD4C7"/>
  <image href="../assets/products/noir-regatta-1.png" x="984" y="188" width="72" height="72" preserveAspectRatio="xMidYMid meet"/>
  <text x="1080" y="214" fill="#171717" font-family="Georgia, serif" font-size="24">NOIR REGATTA</text>
  <text x="1080" y="242" fill="#57534E" font-family="Arial, sans-serif" font-size="14">Taille de votre bracelet: sans mise a taille</text>
  <text x="1080" y="273" fill="#57534E" font-family="Arial, sans-serif" font-size="16">x1</text>
  <text x="1120" y="273" fill="#171717" font-family="Georgia, serif" font-size="24">15800 DT</text>
  <rect x="984" y="320" width="350" height="1" fill="#DDD4C7"/>
  <text x="984" y="365" fill="#57534E" font-family="Arial, sans-serif" font-size="18">Sous-total</text>
  <text x="1334" y="365" text-anchor="end" fill="#171717" font-family="Arial, sans-serif" font-size="18">15800 DT</text>
  <text x="984" y="410" fill="#57534E" font-family="Arial, sans-serif" font-size="18">Livraison</text>
  <text x="1334" y="410" text-anchor="end" fill="#171717" font-family="Arial, sans-serif" font-size="18">offerte</text>
  <text x="984" y="455" fill="#57534E" font-family="Arial, sans-serif" font-size="18">Garantie internationale 3 ans</text>
  <text x="1334" y="455" text-anchor="end" fill="#171717" font-family="Arial, sans-serif" font-size="18">offerte</text>
  <rect x="984" y="500" width="350" height="1" fill="#DDD4C7"/>
  <text x="984" y="547" fill="#171717" font-family="Arial, sans-serif" font-size="20" letter-spacing="2">TOTAL TTC</text>
  <text x="1334" y="547" text-anchor="end" fill="#171717" font-family="Georgia, serif" font-size="34">15800 DT</text>
</svg>
