<svg width="430" height="932" viewBox="0 0 430 932" fill="none" xmlns="http://www.w3.org/2000/svg">
  <rect width="430" height="932" fill="#F8F4ED"/>
  <rect width="430" height="124" fill="#171717"/>
  <text x="215" y="50" text-anchor="middle" fill="white" font-family="Georgia, serif" font-size="28" font-weight="700">LUX WATCHES</text>
  <rect x="362" y="42" width="32" height="32" stroke="rgba(255,255,255,0.28)"/>
  <path d="M371 52H385" stroke="white" stroke-width="2"/>
  <path d="M371 58H385" stroke="white" stroke-width="2"/>
  <path d="M371 64H385" stroke="white" stroke-width="2"/>
  <image href="../assets/hero/home-hero.webp" x="0" y="124" width="430" height="430" preserveAspectRatio="xMidYMid slice"/>
  <rect x="0" y="124" width="430" height="430" fill="url(#heroShade)"/>
  <text x="215" y="255" text-anchor="middle" fill="#C9A961" font-family="Arial, sans-serif" font-size="11" letter-spacing="5">LUX WATCHES</text>
  <text x="215" y="314" text-anchor="middle" fill="white" font-family="Georgia, serif" font-size="37" font-weight="700">Des montres</text>
  <text x="215" y="358" text-anchor="middle" fill="white" font-family="Georgia, serif" font-size="37" font-weight="700">d'exception</text>
  <text x="215" y="402" text-anchor="middle" fill="white" font-family="Georgia, serif" font-size="37" font-weight="700">pour ceux qui</text>
  <text x="215" y="446" text-anchor="middle" fill="white" font-family="Georgia, serif" font-size="37" font-weight="700">collectionnent</text>
  <rect x="105" y="478" width="220" height="52" fill="none" stroke="rgba(255,255,255,0.35)"/>
  <text x="215" y="511" text-anchor="middle" fill="white" font-family="Arial, sans-serif" font-size="14" letter-spacing="4">DECOUVRIR</text>
  <text x="24" y="596" fill="#C9A961" font-family="Arial, sans-serif" font-size="11" letter-spacing="5">COLLECTION RECENTE</text>
  <rect x="24" y="618" width="38" height="38" stroke="#DDD4C7"/>
  <path d="M48 637H36" stroke="#171717" stroke-width="2"/>
  <path d="M40 631L34 637L40 643" stroke="#171717" stroke-width="2"/>
  <rect x="72" y="618" width="38" height="38" stroke="#DDD4C7"/>
  <path d="M84 637H96" stroke="#171717" stroke-width="2"/>
  <path d="M90 631L96 637L90 643" stroke="#171717" stroke-width="2"/>
  <image href="../assets/products/noir-regatta-1.png" x="24" y="676" width="290" height="170" preserveAspectRatio="xMidYMid meet"/>
  <text x="169" y="886" text-anchor="middle" fill="#171717" font-family="Georgia, serif" font-size="28">NOIR REGATTA</text>
  <image href="../assets/products/glacier-prime-1.png" x="312" y="676" width="94" height="170" preserveAspectRatio="xMidYMid meet" opacity="0.75"/>
  <defs>
    <linearGradient id="heroShade" x1="215" y1="124" x2="215" y2="554" gradientUnits="userSpaceOnUse">
      <stop stop-color="rgba(0,0,0,0.88)"/>
      <stop offset="0.38" stop-color="rgba(0,0,0,0.28)"/>
      <stop offset="1" stop-color="rgba(0,0,0,0.78)"/>
    </linearGradient>
  </defs>
</svg>
