<svg width="1440" height="960" viewBox="0 0 1440 960" fill="none" xmlns="http://www.w3.org/2000/svg">
  <rect width="1440" height="960" fill="#F8F4ED"/>
  <rect width="1440" height="82" fill="#171717"/>
  <text x="58" y="48" fill="white" font-family="Georgia, serif" font-size="34" font-weight="700">LUX WATCHES</text>
  <text x="58" y="67" fill="#C9A961" font-family="Arial, sans-serif" font-size="11" letter-spacing="5">SHOP TITLE</text>
  <text x="360" y="49" fill="rgba(255,255,255,0.88)" font-family="Arial, sans-serif" font-size="18">Produits</text>
  <text x="480" y="49" fill="rgba(255,255,255,0.88)" font-family="Arial, sans-serif" font-size="18">Contact</text>
  <rect x="1252" width="188" height="82" fill="#C9A961"/>
  <text x="1301" y="49" fill="white" font-family="Arial, sans-serif" font-size="18">Panier</text>
  <image href="../assets/hero/home-hero.webp" x="0" y="82" width="1440" height="475" preserveAspectRatio="xMidYMid slice"/>
  <rect x="0" y="82" width="1440" height="475" fill="url(#heroShade)"/>
  <text x="720" y="323" text-anchor="middle" fill="#C9A961" font-family="Arial, sans-serif" font-size="14" letter-spacing="7">LUX WATCHES</text>
  <text x="720" y="387" text-anchor="middle" fill="white" font-family="Georgia, serif" font-size="64" font-weight="700">Des montres d'exception</text>
  <text x="720" y="458" text-anchor="middle" fill="white" font-family="Georgia, serif" font-size="64" font-weight="700">pour ceux qui collectionnent</text>
  <text x="720" y="529" text-anchor="middle" fill="white" font-family="Georgia, serif" font-size="64" font-weight="700">le style autant que le temps.</text>
  <rect x="602" y="564" width="236" height="58" fill="none" stroke="rgba(255,255,255,0.35)"/>
  <text x="720" y="601" text-anchor="middle" fill="white" font-family="Arial, sans-serif" font-size="16" letter-spacing="4">DECOUVRIR</text>
  <text x="84" y="700" fill="#C9A961" font-family="Arial, sans-serif" font-size="12" letter-spacing="5">COLLECTION RECENTE</text>
  <rect x="1260" y="664" width="44" height="44" stroke="#DDD4C7"/>
  <path d="M1287 685H1275" stroke="#171717" stroke-width="2"/>
  <path d="M1279 679L1273 685L1279 691" stroke="#171717" stroke-width="2"/>
  <rect x="1318" y="664" width="44" height="44" stroke="#DDD4C7"/>
  <path d="M1333 685H1345" stroke="#171717" stroke-width="2"/>
  <path d="M1339 679L1345 685L1339 691" stroke="#171717" stroke-width="2"/>
  <image href="../assets/products/noir-regatta-1.png" x="70" y="730" width="360" height="170" preserveAspectRatio="xMidYMid meet"/>
  <image href="../assets/products/glacier-prime-1.png" x="540" y="730" width="360" height="170" preserveAspectRatio="xMidYMid meet"/>
  <image href="../assets/products/aurum-celestia-1.png" x="1010" y="730" width="360" height="170" preserveAspectRatio="xMidYMid meet"/>
  <text x="250" y="935" text-anchor="middle" fill="#171717" font-family="Georgia, serif" font-size="28">NOIR REGATTA</text>
  <text x="720" y="935" text-anchor="middle" fill="#171717" font-family="Georgia, serif" font-size="28">GLACIER PRIME</text>
  <text x="1190" y="935" text-anchor="middle" fill="#171717" font-family="Georgia, serif" font-size="28">AURUM CELESTIA</text>
  <defs>
    <linearGradient id="heroShade" x1="720" y1="82" x2="720" y2="557" gradientUnits="userSpaceOnUse">
      <stop stop-color="rgba(0,0,0,0.88)"/>
      <stop offset="0.38" stop-color="rgba(0,0,0,0.28)"/>
      <stop offset="1" stop-color="rgba(0,0,0,0.78)"/>
    </linearGradient>
  </defs>
</svg>
